<svg xmlns="http://www.w3.org/2000/svg" viewBox="0 0 512 512" fill="none">
  <style>
    .logo-outer {
      stroke: #ff4200;
      transform-origin: center;
      animation: rotateRing 20s linear infinite;
    }
    .logo-outer-ripple {
      stroke: #ff4200;
      opacity: 0.3;
      transform-origin: center;
      animation: ripple 2s cubic-bezier(0.1, 0.8, 0.3, 1) infinite;
    }
    .logo-inner {
      fill: #ff4200;
      transform-origin: center;
      animation: scaleA 4s ease-in-out infinite alternate;
    }
    @keyframes rotateRing {
      from { transform: rotate(0deg); }
      to { transform: rotate(360deg); }
    }
    @keyframes ripple {
      0% {
        transform: scale(1);
        opacity: 0.5;
      }
      100% {
        transform: scale(1.15);
        opacity: 0;
      }
    }
    @keyframes scaleA {
      0% { transform: scale(1); }
      100% { transform: scale(1.03); }
    }
  </style>
  <path class="logo-outer" d="M398.114 421C445.533 380.876 474.714 322.514 474.714 256.857C474.714 136.486 376.229 38 255.857 38C135.486 38 37 136.486 37 256.857C37 322.514 66.1809 380.876 113.6 421" stroke-width="73.1573"/>
  <path class="logo-outer-ripple" d="M398.114 421C445.533 380.876 474.714 322.514 474.714 256.857C474.714 136.486 376.229 38 255.857 38C135.486 38 37 136.486 37 256.857C37 322.514 66.1809 380.876 113.6 421" stroke-width="73.1573"/>
  <path class="logo-inner" d="M181.963 176.024L42.0293 511.651H142.825L200.192 352.952L247.909 233.927C250.769 226.064 253.45 222.132 255.952 222.132C258.096 222.132 260.598 226.064 263.458 233.927L311.175 352.952L368.542 511.651H469.874L329.404 176.024C322.255 158.867 312.783 147.25 300.988 141.174C289.55 135.098 274.538 132.06 255.952 132.06C234.148 132.06 217.885 135.455 207.162 142.246C196.797 149.038 188.397 160.297 181.963 176.024Z"/>
</svg>
